General
  http://www.imdb.com/title/tt0046247/
      Complete name : The.Robe.1953.720p.Bluray.x264-CHD.mkv
      Format : Matroska
      File size : 4.36 GiB
      Duration : 2h 13mn
      Overall bit rate : 4 675 Kbps
      Movie name : *VENCI-MOVIE*
      Encoded date : UTC 2011-03-07 20:20:37
      Writing application : mkvmerge v4.5.0 ('Speed of Light') built on Feb  1 2011 02:10:32
      Writing library : libebml v1.2.0 + libmatroska v1.1.0
   Video #1
      ID : 1
      Format : AVC
      Format/Info : Advanced Video Codec
      Format profile : High@L4.1
      Format settings, CABAC : Yes
      Format settings, ReFrames : 3 frames
      Muxing mode : Container profile=Unknown@4.1
      Codec ID : V_MPEG4/ISO/AVC
      Duration : 2h 13mn
      Bit rate : 4 133 Kbps
      Nominal bit rate : 4 230 Kbps
      Width : 1 280 pixels
      Height : 504 pixels
      Display aspect ratio : 2.540
      Frame rate : 23.976 fps
      Resolution : 24 bits
      Colorimetry : 4:2:0
      Scan type : Progressive
      Bits/(Pixel*Frame) : 0.267
      Stream size : 3.85 GiB (88%)
      Title : @4 230Kbps High Profiles @L4.1
      Writing library : x264 core 67 r1127M 8d82fec
      Encoding settings : cabac=1 / ref=3 / deblock=1:-3:-3 / analyse=0x3:0x113 / me=umh / subme=7 / psy_rd=1.3:0.6 / mixed_ref=1 / me_range=32 / chroma_me=1 / trellis=1 / 8x8dct=1 / cqm=2 / deadzone=6,4 / chroma_qp_offset=-8 / threads=6 / nr=0 / decimate=1 / mbaff=0 / bframes=3 / b_pyramid=1 / b_adapt=1 / b_bias=0 / direct=3 / wpredb=1 / keyint=250 / keyint_min=25 / scenecut=40 / rc=2pass / bitrate=4230 / ratetol=1.0 / qcomp=1.00 / qpmin=10 / qpmax=51 / qpstep=4 / cplxblur=20.0 / qblur=0.5 / ip_ratio=1.40 / pb_ratio=1.30 / aq=1:0.50 / zones=0,0,b=0.3
   Audio #2
      ID : 2
      Format : AC-3
      Format/Info : Audio Coding 3
      Codec ID : A_AC3
      Duration : 2h 13mn
      Bit rate mode : Constant
      Bit rate : 448 Kbps
      Channel(s) : 6 channels
      Channel positions : Front: L C R, Surround: L R, LFE
      Sampling rate : 48.0 KHz
      Stream size : 428 MiB (10%)  English
   Text #3
      ID : 3
      Format : UTF-8
      Codec ID : S_TEXT/UTF8
      Codec ID/Info : UTF-8 Plain Text
      Title : Bulgarian ON
      Language : Bulgarian
   Text #4
      ID : 4
      Format : UTF-8
      Codec ID : S_TEXT/UTF8
      Codec ID/Info : UTF-8 Plain Text
      Title : Imperial Aramaic ON
      Language : arc